<svg viewBox="-240,-250,480,500" xmlns="http://www.w3.org/2000/svg" xmlns:xlink="http://www.w3.org/1999/xlink"><g><path fill="rgb(79, 82, 209)" d="M0.4493132447537781,-148.99932254076893A149,149,0,0,1,112.5499037520015,97.63974173160844L76.01029226843359,65.74713278362262A100.5,100.5,0,0,0,0.44931324475377593,-100.49899560497154Z"><title>home-page: 54</title></path><path fill="rgb(27, 28, 72)" d="M111.95898931841215,98.31675701933864A149,149,0,0,1,-42.67537044680752,142.75788159407432L-28.6442368031381,96.33149899158504A100.5,100.5,0,0,0,75.41937783484424,66.42414807135283Z"><title>twitter: 27</title></path><path fill="rgb(55, 57, 146)" d="M-43.53557036409542,142.49790915333773A149,149,0,0,1,-124.20458744622319,-82.30565264496416L-83.85627750210102,-55.39291221348293A100.5,100.5,0,0,0,-29.504436720425993,96.07152655084845Z"><title>facebook: 44</title></path><path fill="rgb(161, 167, 255)" d="M-123.70594129299248,-83.05323647405139A149,149,0,0,1,-50.57296226667148,-140.1548268436511L-34.24882901735238,-94.48421937519599A100.5,100.5,0,0,0,-83.35763134887026,-56.140496042570206Z"><title>kickoff-fundraiser: 15</title></path><path fill="rgb(230, 239, 255)" d="M-49.726765544794,-140.4572845688435A149,149,0,0,1,-0.4493132447538294,-148.99932254076893L-0.4493132447537882,-100.49899560497154A100.5,100.5,0,0,0,-33.40263229547496,-94.7866771003884Z"><title>corporate-fundraiser: 8</title></path><g font-family="gilroy-light" font-size="10" text-anchor="middle" fill="rgb(193, 148, 70)"><text transform="translate(170.3544281374549,-67.10448636051298)"><tspan y="-0.4em" font-weight="bold">home-page</tspan><tspan x="0" y="0.7em" fill-opacity="0.7" font-weight="bold">54</tspan></text><text transform="translate(51.686566063333586,155.86576422315213)"><tspan y="-0.4em" font-weight="bold">twitter</tspan><tspan x="0" y="0.7em" fill-opacity="0.7" font-weight="bold">27</tspan></text><text transform="translate(-176.1284504616766,54.77535297890079)"><tspan y="-0.4em" font-weight="bold">facebook</tspan><tspan x="0" y="0.7em" fill-opacity="0.7" font-weight="bold">44</tspan></text><text transform="translate(-115.16037015232821,-127.82629630979707)"><tspan y="-0.4em" font-weight="bold">kickoff-fundraiser</tspan><tspan x="0" y="0.7em" fill-opacity="0.7" font-weight="bold">15</tspan></text><text transform="translate(-31.96069198707442,-159.79199374975713)"><tspan y="-0.4em" font-weight="bold">corporate-fundraiser</tspan><tspan x="0" y="0.7em" fill-opacity="0.7" font-weight="bold">8</tspan></text></g><text font-family="gilroy-light" text-anchor="middle" font-size="1.0em" y="8" style="font-weight: bold;"># of Donors by Ref Code</text></g></svg>