<svg width="59" height="139" viewBox="0 0 59 139" fill="none" xmlns="http://www.w3.org/2000/svg">
<path d="M16.9026 45.7695C17.2605 44.4425 17.8674 40.419 19.9367 41.3202C20.9491 41.7611 20.2261 43.3107 19.9367 44.3535C17.7591 52.1829 15.4642 59.4833 13.2612 67.3095C11.3751 74.0141 9.36321 80.3739 7.49719 87.03C6.88626 89.2107 6.03564 92.3279 5.87893 92.9995C4.91712 96.2219 19.7322 94.0078 19.7322 94.0078C19.7322 94.0078 19.7345 118.961 19.7345 129.403C19.7345 131.179 19.5564 133.166 19.9367 134.359C20.3969 135.803 21.4984 137.121 22.7677 137.595C26.4512 138.969 29.5876 136.746 30.2511 133.752C30.5648 132.337 30.3523 130.408 30.3523 128.594C30.3523 119.466 30.3523 111.761 30.3523 102.301C30.3523 100.672 30.1885 99.1945 30.2511 97.5479C30.3098 96.0164 30.1704 93.8046 31.2625 93.6034C33.3531 93.218 33.162 95.956 33.0832 97.7501C32.632 108 33.1054 112.472 33.0832 121.718C33.079 123.36 33.0832 125.417 33.0832 127.482C33.0832 129.48 32.8516 131.614 33.1843 133.043C33.6283 134.952 35.0757 136.633 36.6221 137.291C40.8083 139.072 45.2415 136.928 46.1284 133.246C46.4885 131.755 46.2295 129.55 46.2295 127.482C46.2295 114.048 46.4317 100.184 46.4317 87.2323C46.4317 75.8417 46.3306 60.9811 46.3306 47.6911C46.3306 46.1457 45.7106 42.817 47.7466 43.0386C49.0505 43.1812 48.8591 44.5102 48.8591 46.3762C48.8591 54.1236 48.8591 60.6615 48.8591 68.5233C48.8591 71.6718 48.5385 75.2189 49.1625 77.018C49.7492 78.7122 51.4565 80.3971 53.9151 80.3556C56.1504 80.3173 58.1602 78.5371 58.6688 76.5122C58.9784 75.2783 58.7699 73.2767 58.7699 71.6585C58.7699 63.3203 59.1077 55.2614 58.7699 47.0842C58.5949 42.8555 59.0348 38.0845 57.6574 34.5436C55.8732 29.9578 51.6253 25.7675 45.8248 25.3417C41.2623 25.0059 37.5291 25.4428 33.1841 25.4428C27.239 25.4428 21.4657 24.9888 17.6102 26.959C14.9673 28.3101 12.5995 30.7053 11.0369 33.7355C10.3389 35.0867 10.0084 36.5897 9.51992 38.1846C8.19392 42.5104 6.80912 47.1355 5.27183 51.8366C3.84674 56.1979 2.30945 60.7614 1.12607 65.5909C0.731476 67.1981 -0.11713 68.9682 0.0135956 70.4449C0.335274 74.0929 4.89557 76.1573 7.80034 73.6814C9.2631 72.4344 9.61298 69.8642 10.329 67.6128C11.6035 63.6047 12.4853 60.0495 13.969 55.7813C14.8694 53.194 15.1494 50.9326 16.1942 47.6909C16.3978 47.0602 16.7082 46.4898 16.9026 45.7695Z" fill="black"/>
<path d="M20.4418 10.981C20.3153 14.796 22.5425 18.7083 25.1954 20.4873C25.8368 20.9181 27.207 21.7536 27.9263 22.0044C30.0594 22.7509 32.9096 22.7134 34.9041 22.2067C36.3423 21.8415 38.6413 20.4043 39.6567 19.4757C40.2686 18.9164 41.0868 17.817 41.4772 17.1505C44.6945 11.6564 42.3318 4.87071 38.2407 2.08116C36.9602 1.20838 35.3035 0.649017 33.5892 0.160558C32.5778 -0.128891 30.3326 0.0149279 29.3414 0.261675C26.0237 1.08813 23.6876 3.26051 21.9591 5.62122C21.2358 7.59983 20.5085 8.98141 20.4418 10.981Z" fill="black"/>
</svg>
