<svg width="251" height="71" viewBox="0 0 251 71" fill="none" xmlns="http://www.w3.org/2000/svg">
<g filter="url(#filter0_d)">
<path d="M167.204 39.376C167.204 45.1253 163.435 48 155.896 48H143.268V17.288H155.632C158.771 17.288 161.191 18.0067 162.892 19.444C164.623 20.8813 165.488 22.8173 165.488 25.252C165.488 28.4787 164.08 30.7227 161.264 31.984V32.116C165.224 33.3773 167.204 35.7973 167.204 39.376ZM147.272 44.26H155.5C158.345 44.26 160.355 43.82 161.528 42.94C162.731 42.06 163.332 40.8133 163.332 39.2C163.332 35.856 160.736 34.184 155.544 34.184H147.272V44.26ZM147.272 30.576H154.576C157.187 30.576 159.02 30.136 160.076 29.256C161.132 28.376 161.66 27.2027 161.66 25.736C161.66 24.24 161.088 23.0813 159.944 22.26C158.829 21.4387 157.289 21.028 155.324 21.028H147.272V30.576ZM173.38 26.792C175.932 25.6773 178.66 25.12 181.564 25.12C184.497 25.12 186.741 25.9707 188.296 27.672C189.85 29.3733 190.628 31.412 190.628 33.788V48H187.108L186.624 45.184H186.492C184.38 47.3547 181.666 48.44 178.352 48.44C176.357 48.44 174.656 47.8387 173.248 46.636C171.869 45.4333 171.18 43.7907 171.18 41.708C171.18 39.6253 172.03 37.9387 173.732 36.648C175.462 35.3573 177.985 34.712 181.3 34.712H186.624V34.36C186.624 32.424 186.14 31.0307 185.172 30.18C184.233 29.3293 182.59 28.904 180.244 28.904C177.897 28.904 175.697 29.4027 173.644 30.4H173.38V26.792ZM186.624 41.62V37.924H181.828C177.398 37.924 175.184 39.0973 175.184 41.444C175.184 43.7613 176.738 44.92 179.848 44.92C181.138 44.92 182.385 44.612 183.588 43.996C184.79 43.3507 185.802 42.5587 186.624 41.62ZM209.578 25.12C212.013 25.12 213.934 25.9413 215.342 27.584C216.75 29.2267 217.454 31.28 217.454 33.744V48H213.45V34.184C213.45 30.6053 211.837 28.816 208.61 28.816C206.058 28.816 203.653 30.224 201.394 33.04V48H197.39V25.56H200.91L201.394 28.376V29.036H201.482C203.858 26.4253 206.557 25.12 209.578 25.12ZM234.323 34.58L244.443 48H239.515L231.595 37.396H231.463L228.207 40.652V48H224.203V15.88H228.207V35.548H228.339L238.063 25.56H243.431L234.323 34.58Z" fill="black"/>
<path d="M143.268 48H142.268V49H143.268V48ZM143.268 17.288V16.288H142.268V17.288H143.268ZM162.892 19.444L162.247 20.2079L162.253 20.2133L162.892 19.444ZM161.264 31.984L160.855 31.0714L160.264 31.3362V31.984H161.264ZM161.264 32.116H160.264V32.847L160.961 33.0688L161.264 32.116ZM147.272 44.26H146.272V45.26H147.272V44.26ZM161.528 42.94L160.937 42.1329L160.928 42.14L161.528 42.94ZM147.272 34.184V33.184H146.272V34.184H147.272ZM147.272 30.576H146.272V31.576H147.272V30.576ZM160.076 29.256L159.436 28.4878L160.076 29.256ZM159.944 22.26L159.351 23.0651L159.361 23.0723L159.944 22.26ZM147.272 21.028V20.028H146.272V21.028H147.272ZM166.204 39.376C166.204 42.0129 165.354 43.8415 163.771 45.0489C162.136 46.2953 159.567 47 155.896 47V49C159.764 49 162.848 48.2674 164.983 46.6391C167.17 44.9718 168.204 42.4884 168.204 39.376H166.204ZM155.896 47H143.268V49H155.896V47ZM144.268 48V17.288H142.268V48H144.268ZM143.268 18.288H155.632V16.288H143.268V18.288ZM155.632 18.288C158.63 18.288 160.787 18.975 162.247 20.2079L163.537 18.6801C161.594 17.0383 158.911 16.288 155.632 16.288V18.288ZM162.253 20.2133C163.734 21.4435 164.488 23.0869 164.488 25.252H166.488C166.488 22.5478 165.511 20.3191 163.531 18.6747L162.253 20.2133ZM164.488 25.252C164.488 26.7185 164.169 27.8924 163.585 28.8235C163.003 29.7517 162.113 30.5079 160.855 31.0714L161.673 32.8966C163.231 32.1987 164.453 31.2023 165.279 29.8865C166.103 28.5736 166.488 27.0122 166.488 25.252H164.488ZM160.264 31.984V32.116H162.264V31.984H160.264ZM160.961 33.0688C162.815 33.6597 164.112 34.492 164.945 35.5102C165.768 36.5161 166.204 37.7823 166.204 39.376H168.204C168.204 37.391 167.65 35.6579 166.493 34.2438C165.346 32.842 163.673 31.8337 161.567 31.1632L160.961 33.0688ZM147.272 45.26H155.5V43.26H147.272V45.26ZM155.5 45.26C158.389 45.26 160.681 44.8249 162.128 43.74L160.928 42.14C160.028 42.8151 158.302 43.26 155.5 43.26V45.26ZM162.119 43.747C163.602 42.6613 164.332 41.1016 164.332 39.2H162.332C162.332 40.5251 161.859 41.4587 160.937 42.133L162.119 43.747ZM164.332 39.2C164.332 37.2217 163.537 35.6349 161.926 34.5973C160.391 33.6083 158.215 33.184 155.544 33.184V35.184C158.065 35.184 159.783 35.5957 160.844 36.2787C161.829 36.9131 162.332 37.8343 162.332 39.2H164.332ZM155.544 33.184H147.272V35.184H155.544V33.184ZM146.272 34.184V44.26H148.272V34.184H146.272ZM147.272 31.576H154.576V29.576H147.272V31.576ZM154.576 31.576C157.238 31.576 159.378 31.1396 160.716 30.0242L159.436 28.4878C158.662 29.1324 157.135 29.576 154.576 29.576V31.576ZM160.716 30.0242C162.017 28.9402 162.66 27.4767 162.66 25.736H160.66C160.66 26.9286 160.247 27.8118 159.436 28.4878L160.716 30.0242ZM162.66 25.736C162.66 23.9415 161.951 22.4702 160.527 21.4477L159.361 23.0723C160.225 23.6925 160.66 24.5385 160.66 25.736H162.66ZM160.537 21.4549C159.192 20.4637 157.416 20.028 155.324 20.028V22.028C157.163 22.028 158.467 22.4136 159.351 23.0651L160.537 21.4549ZM155.324 20.028H147.272V22.028H155.324V20.028ZM146.272 21.028V30.576H148.272V21.028H146.272ZM173.38 26.792L172.98 25.8756L172.38 26.1376V26.792H173.38ZM188.296 27.672L187.558 28.3466L187.558 28.3466L188.296 27.672ZM190.628 48V49H191.628V48H190.628ZM187.108 48L186.122 48.1694L186.265 49H187.108V48ZM186.624 45.184L187.609 45.0146L187.467 44.184H186.624V45.184ZM186.492 45.184V44.184H186.07L185.775 44.4866L186.492 45.184ZM173.248 46.636L172.59 47.3896L172.598 47.3964L173.248 46.636ZM173.732 36.648L173.134 35.8463L173.127 35.8513L173.732 36.648ZM186.624 34.712V35.712H187.624V34.712H186.624ZM185.172 30.18L184.5 30.921L184.506 30.9261L184.512 30.9312L185.172 30.18ZM173.644 30.4V31.4H173.874L174.081 31.2995L173.644 30.4ZM173.38 30.4H172.38V31.4H173.38V30.4ZM186.624 41.62L187.376 42.2785L187.624 41.9957V41.62H186.624ZM186.624 37.924H187.624V36.924H186.624V37.924ZM183.588 43.996L184.044 44.886L184.052 44.8817L184.061 44.8772L183.588 43.996ZM173.78 27.7084C176.2 26.6512 178.792 26.12 181.564 26.12V24.12C178.528 24.12 175.663 24.7034 172.98 25.8756L173.78 27.7084ZM181.564 26.12C184.298 26.12 186.241 26.906 187.558 28.3466L189.034 26.9974C187.241 25.0353 184.696 24.12 181.564 24.12V26.12ZM187.558 28.3466C188.938 29.8574 189.628 31.6531 189.628 33.788H191.628C191.628 31.1709 190.763 28.8893 189.034 26.9974L187.558 28.3466ZM189.628 33.788V48H191.628V33.788H189.628ZM190.628 47H187.108V49H190.628V47ZM188.093 47.8306L187.609 45.0146L185.638 45.3534L186.122 48.1694L188.093 47.8306ZM186.624 44.184H186.492V46.184H186.624V44.184ZM185.775 44.4866C183.87 46.4445 181.425 47.44 178.352 47.44V49.44C181.908 49.44 184.889 48.2648 187.209 45.8814L185.775 44.4866ZM178.352 47.44C176.575 47.44 175.11 46.9112 173.897 45.8756L172.598 47.3964C174.202 48.7661 176.139 49.44 178.352 49.44V47.44ZM173.905 45.8824C172.776 44.8971 172.18 43.5462 172.18 41.708H170.18C170.18 44.0351 170.963 45.9696 172.59 47.3896L173.905 45.8824ZM172.18 41.708C172.18 39.9474 172.877 38.5519 174.336 37.4447L173.127 35.8513C171.184 37.3254 170.18 39.3033 170.18 41.708H172.18ZM174.33 37.4496C175.817 36.3403 178.092 35.712 181.3 35.712V33.712C177.878 33.712 175.108 34.3744 173.134 35.8464L174.33 37.4496ZM181.3 35.712H186.624V33.712H181.3V35.712ZM187.624 34.712V34.36H185.624V34.712H187.624ZM187.624 34.36C187.624 32.282 187.105 30.548 185.832 29.4288L184.512 30.9312C185.174 31.5133 185.624 32.566 185.624 34.36H187.624ZM185.843 29.439C184.618 28.3281 182.651 27.904 180.244 27.904V29.904C182.53 29.904 183.849 30.3305 184.5 30.921L185.843 29.439ZM180.244 27.904C177.75 27.904 175.4 28.4351 173.207 29.5005L174.081 31.2995C175.994 30.3702 178.044 29.904 180.244 29.904V27.904ZM173.644 29.4H173.38V31.4H173.644V29.4ZM174.38 30.4V26.792H172.38V30.4H174.38ZM187.624 41.62V37.924H185.624V41.62H187.624ZM186.624 36.924H181.828V38.924H186.624V36.924ZM181.828 36.924C179.557 36.924 177.7 37.2192 176.377 37.9204C175.7 38.2788 175.14 38.7557 174.753 39.3715C174.363 39.9908 174.184 40.6938 174.184 41.444H176.184C176.184 41.0209 176.281 40.6972 176.445 40.4365C176.612 40.1723 176.882 39.9159 177.313 39.6876C178.204 39.2155 179.669 38.924 181.828 38.924V36.924ZM174.184 41.444C174.184 42.849 174.671 44.0468 175.752 44.8528C176.779 45.6177 178.198 45.92 179.848 45.92V43.92C178.388 43.92 177.476 43.6429 176.947 43.2492C176.474 42.8966 176.184 42.3563 176.184 41.444H174.184ZM179.848 45.92C181.305 45.92 182.707 45.5708 184.044 44.886L183.132 43.106C182.064 43.6532 180.972 43.92 179.848 43.92V45.92ZM184.061 44.8772C185.359 44.1804 186.469 43.3157 187.376 42.2785L185.871 40.9615C185.136 41.8016 184.222 42.521 183.115 43.1148L184.061 44.8772ZM215.342 27.584L214.583 28.2348L214.583 28.2348L215.342 27.584ZM217.454 48V49H218.454V48H217.454ZM213.45 48H212.45V49H213.45V48ZM201.394 33.04L200.614 32.4143L200.394 32.6885V33.04H201.394ZM201.394 48V49H202.394V48H201.394ZM197.39 48H196.39V49H197.39V48ZM197.39 25.56V24.56H196.39V25.56H197.39ZM200.91 25.56L201.896 25.3906L201.753 24.56H200.91V25.56ZM201.394 28.376H202.394V28.2907L202.38 28.2066L201.394 28.376ZM201.394 29.036H200.394V30.036H201.394V29.036ZM201.482 29.036V30.036H201.924L202.222 29.7091L201.482 29.036ZM209.578 26.12C211.762 26.12 213.39 26.8431 214.583 28.2348L216.101 26.9332C214.478 25.0396 212.264 24.12 209.578 24.12V26.12ZM214.583 28.2348C215.814 29.6711 216.454 31.4835 216.454 33.744H218.454C218.454 31.0765 217.686 28.7822 216.101 26.9332L214.583 28.2348ZM216.454 33.744V48H218.454V33.744H216.454ZM217.454 47H213.45V49H217.454V47ZM214.45 48V34.184H212.45V48H214.45ZM214.45 34.184C214.45 32.2646 214.02 30.6384 212.983 29.4884C211.928 28.3187 210.406 27.816 208.61 27.816V29.816C210.041 29.816 210.939 30.208 211.497 30.8276C212.074 31.467 212.45 32.5247 212.45 34.184H214.45ZM208.61 27.816C205.644 27.816 202.98 29.4645 200.614 32.4143L202.174 33.6657C204.325 30.9835 206.472 29.816 208.61 29.816V27.816ZM200.394 33.04V48H202.394V33.04H200.394ZM201.394 47H197.39V49H201.394V47ZM198.39 48V25.56H196.39V48H198.39ZM197.39 26.56H200.91V24.56H197.39V26.56ZM199.925 25.7294L200.409 28.5454L202.38 28.2066L201.896 25.3906L199.925 25.7294ZM200.394 28.376V29.036H202.394V28.376H200.394ZM201.394 30.036H201.482V28.036H201.394V30.036ZM202.222 29.7091C204.443 27.2682 206.886 26.12 209.578 26.12V24.12C206.227 24.12 203.273 25.5824 200.742 28.3629L202.222 29.7091ZM234.323 34.58L233.619 33.8695L232.998 34.4844L233.524 35.1821L234.323 34.58ZM244.443 48V49H246.449L245.241 47.3979L244.443 48ZM239.515 48L238.713 48.5984L239.013 49H239.515V48ZM231.595 37.396L232.396 36.7976L232.096 36.396H231.595V37.396ZM231.463 37.396V36.396H231.048L230.755 36.6889L231.463 37.396ZM228.207 40.652L227.499 39.9449L227.207 40.2378V40.652H228.207ZM228.207 48V49H229.207V48H228.207ZM224.203 48H223.203V49H224.203V48ZM224.203 15.88V14.88H223.203V15.88H224.203ZM228.207 15.88H229.207V14.88H228.207V15.88ZM228.207 35.548H227.207V36.548H228.207V35.548ZM228.339 35.548V36.548H228.761L229.055 36.2456L228.339 35.548ZM238.063 25.56V24.56H237.64L237.346 24.8624L238.063 25.56ZM243.431 25.56L244.134 26.2705L245.861 24.56H243.431V25.56ZM233.524 35.1821L243.644 48.6021L245.241 47.3979L235.121 33.9779L233.524 35.1821ZM244.443 47H239.515V49H244.443V47ZM240.316 47.4016L232.396 36.7976L230.793 37.9944L238.713 48.5984L240.316 47.4016ZM231.595 36.396H231.463V38.396H231.595V36.396ZM230.755 36.6889L227.499 39.9449L228.914 41.3591L232.17 38.1031L230.755 36.6889ZM227.207 40.652V48H229.207V40.652H227.207ZM228.207 47H224.203V49H228.207V47ZM225.203 48V15.88H223.203V48H225.203ZM224.203 16.88H228.207V14.88H224.203V16.88ZM227.207 15.88V35.548H229.207V15.88H227.207ZM228.207 36.548H228.339V34.548H228.207V36.548ZM229.055 36.2456L238.779 26.2576L237.346 24.8624L227.622 34.8504L229.055 36.2456ZM238.063 26.56H243.431V24.56H238.063V26.56ZM242.727 24.8495L233.619 33.8695L235.026 35.2905L244.134 26.2705L242.727 24.8495Z" fill="black"/>
</g>
<g filter="url(#filter1_d)">
<rect x="4" width="127" height="63" fill="#4F53D1"/>
</g>
<path d="M18.622 15.8H45.578C45.9153 15.8 46.2067 15.9227 46.452 16.168C46.6973 16.4133 46.82 16.7047 46.82 17.042V24.448C46.82 24.7853 46.6973 25.0767 46.452 25.322C46.2067 25.5673 45.9153 25.69 45.578 25.69H37.942V46.758C37.942 47.0953 37.8193 47.3867 37.574 47.632C37.3287 47.8773 37.0373 48 36.7 48H27.5C27.1627 48 26.8713 47.8773 26.626 47.632C26.3807 47.3867 26.258 47.0953 26.258 46.758V25.69H18.622C18.2847 25.69 17.9933 25.5673 17.748 25.322C17.5027 25.0767 17.38 24.7853 17.38 24.448V17.042C17.38 16.7047 17.5027 16.4133 17.748 16.168C17.9933 15.9227 18.2847 15.8 18.622 15.8ZM67.943 27.3C68.2803 26.9013 68.449 26.426 68.449 25.874C68.449 25.322 68.2803 24.8313 67.943 24.402C67.6363 23.942 67.1763 23.712 66.563 23.712H62.699V27.898H66.563C67.1763 27.898 67.6363 27.6987 67.943 27.3ZM62.699 35.58V40.088H66.977C67.6823 40.088 68.2037 39.858 68.541 39.398C68.909 38.9073 69.093 38.3707 69.093 37.788V37.742C69.093 37.1593 68.8937 36.6533 68.495 36.224C68.127 35.7947 67.621 35.58 66.977 35.58H62.699ZM68.173 48H52.441C52.1037 48 51.8123 47.8773 51.567 47.632C51.3217 47.3867 51.199 47.0953 51.199 46.758V17.042C51.199 16.7047 51.3217 16.4133 51.567 16.168C51.8123 15.9227 52.1037 15.8 52.441 15.8H67.713C72.0677 15.8 75.2723 16.5973 77.327 18.192C79.4123 19.756 80.455 22.1327 80.455 25.322V25.46C80.455 26.7787 80.0717 27.9593 79.305 29.002C78.5383 30.014 77.695 30.75 76.775 31.21C78.0017 31.7007 79.029 32.5747 79.857 33.832C80.7157 35.0587 81.145 36.408 81.145 37.88C81.145 44.6267 76.821 48 68.173 48ZM87.2105 15.8H100.459C104.936 15.8 108.616 16.9193 111.499 19.158C114.412 21.366 115.869 24.4633 115.869 28.45V35.304C115.869 39.4747 114.458 42.6333 111.637 44.78C108.815 46.9267 105.105 48 100.505 48H87.2105C86.8732 48 86.5818 47.8773 86.3365 47.632C86.0912 47.3867 85.9685 47.0953 85.9685 46.758V17.042C85.9685 16.7047 86.0912 16.4133 86.3365 16.168C86.5818 15.9227 86.8732 15.8 87.2105 15.8ZM97.4685 24.77V39.03H100.459C101.501 39.03 102.329 38.7233 102.943 38.11C103.587 37.466 103.909 36.5307 103.909 35.304V28.45C103.909 25.9967 102.759 24.77 100.459 24.77H97.4685Z" fill="white"/>
<defs>
<filter id="filter0_d" x="138.268" y="14.88" width="112.181" height="42.56" filterUnits="userSpaceOnUse" color-interpolation-filters="sRGB">
<feFlood flood-opacity="0" result="BackgroundImageFix"/>
<feColorMatrix in="SourceAlpha" type="matrix" values="0 0 0 0 0 0 0 0 0 0 0 0 0 0 0 0 0 0 127 0"/>
<feOffset dy="4"/>
<feGaussianBlur stdDeviation="2"/>
<feColorMatrix type="matrix" values="0 0 0 0 0 0 0 0 0 0 0 0 0 0 0 0 0 0 0.25 0"/>
<feBlend mode="normal" in2="BackgroundImageFix" result="effect1_dropShadow"/>
<feBlend mode="normal" in="SourceGraphic" in2="effect1_dropShadow" result="shape"/>
</filter>
<filter id="filter1_d" x="0" y="0" width="135" height="71" filterUnits="userSpaceOnUse" color-interpolation-filters="sRGB">
<feFlood flood-opacity="0" result="BackgroundImageFix"/>
<feColorMatrix in="SourceAlpha" type="matrix" values="0 0 0 0 0 0 0 0 0 0 0 0 0 0 0 0 0 0 127 0"/>
<feOffset dy="4"/>
<feGaussianBlur stdDeviation="2"/>
<feColorMatrix type="matrix" values="0 0 0 0 0 0 0 0 0 0 0 0 0 0 0 0 0 0 0.25 0"/>
<feBlend mode="normal" in2="BackgroundImageFix" result="effect1_dropShadow"/>
<feBlend mode="normal" in="SourceGraphic" in2="effect1_dropShadow" result="shape"/>
</filter>
</defs>
</svg>
